# xmcd CD database file
#
# Track frame offsets:
#	150
#	25974
#	52707
#	63467
#	78572
#	96626
#	109086
#	145942
#	162041
#	194087
#	206153
#	219095
#	234481
#	252492
#	276356
#	301206
#	347323
#
# Disc length: 4751 seconds
#
# Revision: 4
# Processed by: cddbd v1.5.2PL0 Copyright (c) Steve Scherf et al.
# Submitted via: CDex 1.51
#
DISCID=f7128d11
DTITLE=Mozart - Vol.1 - Karajan conducts Mozart
DYEAR=2008
DGENRE=Classique
TTITLE0=Mozart - Eine kleine Nachtmusik (Serenade in G, K525) - I. Allegro  [Berliner Philharmoniker, 1961]
TTITLE1=Mozart - Eine kleine Nachtmusik (Serenade in G, K525) - II. Romanze: Andante
TTITLE2=Mozart - Eine kleine Nachtmusik (Serenade in G, K525) - III. Menuetto: Allegretto
TTITLE3=Mozart - Eine kleine Nachtmusik (Serenade in G, K525) - IV. Rondo - Allegro
TTITLE4=Mozart - Flute and Harp Concerto in C K299  II. Andantino (extract)  [Berliner Philharmoniker, 1972]
TTITLE5=Mozart - ''Sleigh Ride'' German Dance K605, N°3   [Berliner Philharmoniker, 1961]
TTITLE6=Mozart - Clarinet Concerto in A K622 - II. Adagio  [Philharmonia Orchestra, 1957, mono]
TTITLE7=Mozart - Horn Concerto N°4 in E flat K495 - III. Rondo - Allegro vivace  [Philharmonia Orchestra, 1954, mono]
TTITLE8=Mozart - Die Zauberflöte - Overture  [Wiener Philharmoniker, 1952, mono]
TTITLE9=Mozart - Die Zauberflöte - Der Vogelfänger bin ich ja  (Act I)
TTITLE10=Mozart - Die Zauberflöte - Der Hölle Rache  (Act II)
TTITLE11=Mozart - Cosi fan tutte - Soave sia il vento  (Act I)  [Wiener Philharmoniker, 1955, mono]
TTITLE12=Mozart - Ave verum corpus K618 - Singverein der Gesellschaft der Musikfreunde in Wien  [Philharmonia Orchestra, 1961, mono]
TTITLE13=Mozart - Symphony N°29 in A K201 - I. Allegro moderato (extract)  [Berliner Philharmoniker, 1960]
TTITLE14=Mozart - Oboe Concerto in B flat K314 - III. Rondo (Allegretto)  [Berliner Philharmoniker, 1972]
TTITLE15=Mozart - Symphony No.40 in G minor K550 - I. Molto allegro  [Berliner Philharmoniker, 1971]
TTITLE16=Data
EXTD=YEAR: 2008
EXTT0=
EXTT1=
EXTT2=
EXTT3=
EXTT4=
EXTT5=
EXTT6=
EXTT7=
EXTT8=
EXTT9=
EXTT10=
EXTT11=
EXTT12=
EXTT13=
EXTT14=
EXTT15=
EXTT16=
PLAYORDER=
